<svg width="40" height="40" viewBox="0 0 40 40" xmlns="http://www.w3.org/2000/svg">
  <path data-shaft-logo="official" fill="#9A6A00" fill-rule="evenodd" transform="scale(2.5)"
        d="M8 .9C4.08.9.9 4.08.9 8S4.08 15.1 8 15.1 15.1 11.92 15.1 8 11.92.9 8 .9Zm0 1.55A5.55 5.55 0 1 0 8 13.55 5.55 5.55 0 0 0 8 2.45Zm3.65 2.25H6.4c-1.75 0-3.05 1.05-3.05 2.45 0 1.13.85 1.9 2.35 2.2l4.05.8c.5.1.78.32.78.62 0 .4-.42.68-.98.68H4.3v1.65h5.15c1.85 0 3.15-1.07 3.15-2.57 0-1.2-.85-1.95-2.55-2.28l-4.02-.78c-.45-.1-.68-.3-.68-.58 0-.33.37-.58.9-.58h5.4Z"/>
</svg>
