<svg width="16" height="16" viewBox="0 0 16 16" xmlns="http://www.w3.org/2000/svg">
  <path d="M5.5 4.5C5.5 3.95 5.95 3.5 6.5 3.5C7.05 3.5 7.5 3.95 7.5 4.5C7.5 5.05 7.05 5.5 6.5 5.5C5.95 5.5 5.5 5.05 5.5 4.5ZM8.5 11.5C8.5 10.95 8.95 10.5 9.5 10.5C10.05 10.5 10.5 10.95 10.5 11.5C10.5 12.05 10.05 12.5 9.5 12.5C8.95 12.5 8.5 12.05 8.5 11.5ZM6.5 5.5V7.5C6.5 9.15 7.85 10.5 9.5 10.5M6.5 7.5H10.5"
        fill="none" stroke="#6C707E" stroke-width="1.3" stroke-linecap="round" stroke-linejoin="round"/>
</svg>
