<svg xmlns="http://www.w3.org/2000/svg" width="1024" height="1024" viewBox="0 0 1024 1024" role="img" aria-labelledby="title desc"><title id="title">Chaos Engine symbol-monochrome-black.svg</title><desc id="desc">Four controlled mechanical sweeps form an open C and recessed E around a single-color core.</desc><defs><mask id="mono-cut" maskUnits="userSpaceOnUse"><rect width="1024" height="1024" fill="black"/><path d="M140 400 C164 230 316 108 500 104 C658 101 784 166 870 282 C766 236 648 233 560 287 C491 330 458 385 444 443 C356 463 265 445 187 400 C166 388 151 390 140 400 Z" fill="white"/><path d="M870 282 C910 320 934 365 944 414 Q946 430 928 430 L737 430 Q702 430 692 456 Q684 478 710 486 L800 486 Q819 486 819 505 Q819 524 800 524 L710 524 Q684 532 692 554 Q702 580 737 580 L928 580 Q946 580 944 596 C936 665 904 718 850 760 C779 812 689 827 608 794 C660 743 690 674 685 604 C684 574 667 548 640 531 C617 516 590 507 561 505 C567 468 558 429 533 399 C591 333 704 282 870 282 Z" fill="white"/><path d="M850 760 C770 867 650 930 505 932 C356 934 226 866 153 760 C270 808 387 799 472 744 C537 702 568 646 568 579 C646 568 718 594 781 640 C817 667 842 710 850 760 Z" fill="white"/><path d="M153 760 C93 676 73 566 98 462 C105 434 117 413 134 398 C170 473 235 526 315 547 C364 560 410 554 447 535 C458 572 477 602 506 624 C480 706 412 773 324 800 C259 820 199 803 153 760 Z" fill="white"/><circle cx="520" cy="515" r="94" fill="black"/></mask></defs><g id="chaos-engine-symbol" data-geometry="17d4c5c2b655f876" fill="#0B0D10" mask="url(#mono-cut)"><path id="sweep-top" d="M140 400 C164 230 316 108 500 104 C658 101 784 166 870 282 C766 236 648 233 560 287 C491 330 458 385 444 443 C356 463 265 445 187 400 C166 388 151 390 140 400 Z"/><path id="sweep-right" d="M870 282 C910 320 934 365 944 414 Q946 430 928 430 L737 430 Q702 430 692 456 Q684 478 710 486 L800 486 Q819 486 819 505 Q819 524 800 524 L710 524 Q684 532 692 554 Q702 580 737 580 L928 580 Q946 580 944 596 C936 665 904 718 850 760 C779 812 689 827 608 794 C660 743 690 674 685 604 C684 574 667 548 640 531 C617 516 590 507 561 505 C567 468 558 429 533 399 C591 333 704 282 870 282 Z"/><path id="sweep-bottom" d="M850 760 C770 867 650 930 505 932 C356 934 226 866 153 760 C270 808 387 799 472 744 C537 702 568 646 568 579 C646 568 718 594 781 640 C817 667 842 710 850 760 Z"/><path id="sweep-left" d="M153 760 C93 676 73 566 98 462 C105 434 117 413 134 398 C170 473 235 526 315 547 C364 560 410 554 447 535 C458 572 477 602 506 624 C480 706 412 773 324 800 C259 820 199 803 153 760 Z"/></g><circle cx="520" cy="515" r="62" fill="#0B0D10"/></svg>
